<?xml version="1.0" encoding="UTF-8"?>
<svg id="Camada_2" data-name="Camada 2" xmlns="http://www.w3.org/2000/svg" viewBox="0 0 742.65 19.37">
  <defs>
    <style>
      .cls-1 {
        fill: #b4ce49;
      }

      .cls-2 {
        fill: #3fb5a8;
      }
    </style>
  </defs>
  <g id="Camada_1-2" data-name="Camada 1">
    <g>
      <g>
        <circle class="cls-1" cx="36.92" cy="9.68" r="1.51"/>
        <circle class="cls-1" cx="43.5" cy="9.68" r="1.51"/>
        <circle class="cls-1" cx="50.07" cy="9.68" r="1.51"/>
        <circle class="cls-1" cx="63.22" cy="9.68" r="1.51"/>
        <circle class="cls-1" cx="69.8" cy="9.68" r="1.51"/>
        <circle class="cls-1" cx="76.37" cy="9.68" r="1.51"/>
        <circle class="cls-1" cx="82.95" cy="9.68" r="1.51"/>
        <circle class="cls-1" cx="89.53" cy="9.68" r="1.51"/>
        <circle class="cls-1" cx="96.1" cy="9.68" r="1.51"/>
        <circle class="cls-1" cx="102.68" cy="9.68" r="1.51"/>
        <circle class="cls-1" cx="56.65" cy="9.68" r="1.51"/>
      </g>
      <g>
        <circle class="cls-1" cx="458.37" cy="9.68" r="1.51"/>
        <circle class="cls-1" cx="464.95" cy="9.68" r="1.51"/>
        <circle class="cls-1" cx="471.52" cy="9.68" r="1.51"/>
        <circle class="cls-1" cx="484.67" cy="9.68" r="1.51"/>
        <circle class="cls-1" cx="491.25" cy="9.68" r="1.51"/>
        <circle class="cls-1" cx="497.83" cy="9.68" r="1.51"/>
        <circle class="cls-1" cx="504.4" cy="9.68" r="1.51"/>
        <circle class="cls-1" cx="510.98" cy="9.68" r="1.51"/>
        <circle class="cls-1" cx="517.55" cy="9.68" r="1.51"/>
        <circle class="cls-1" cx="524.13" cy="9.68" r="1.51"/>
        <circle class="cls-1" cx="478.1" cy="9.68" r="1.51"/>
      </g>
      <g>
        <circle class="cls-1" cx="530.96" cy="9.68" r="1.51"/>
        <circle class="cls-1" cx="537.54" cy="9.68" r="1.51"/>
        <circle class="cls-1" cx="544.11" cy="9.68" r="1.51"/>
        <circle class="cls-1" cx="557.26" cy="9.68" r="1.51"/>
        <circle class="cls-1" cx="563.84" cy="9.68" r="1.51"/>
        <circle class="cls-1" cx="570.42" cy="9.68" r="1.51"/>
        <circle class="cls-1" cx="576.99" cy="9.68" r="1.51"/>
        <circle class="cls-1" cx="583.57" cy="9.68" r="1.51"/>
        <circle class="cls-1" cx="590.14" cy="9.68" r="1.51"/>
        <circle class="cls-1" cx="596.72" cy="9.68" r="1.51"/>
        <circle class="cls-1" cx="550.69" cy="9.68" r="1.51"/>
      </g>
      <g>
        <circle class="cls-1" cx="602.79" cy="9.66" r="1.51"/>
        <circle class="cls-1" cx="609.37" cy="9.66" r="1.51"/>
        <circle class="cls-1" cx="615.94" cy="9.66" r="1.51"/>
        <circle class="cls-1" cx="629.09" cy="9.66" r="1.51"/>
        <circle class="cls-1" cx="635.67" cy="9.66" r="1.51"/>
        <circle class="cls-1" cx="642.25" cy="9.66" r="1.51"/>
        <circle class="cls-1" cx="648.82" cy="9.66" r="1.51"/>
        <circle class="cls-1" cx="655.4" cy="9.66" r="1.51"/>
        <circle class="cls-1" cx="661.97" cy="9.66" r="1.51"/>
        <circle class="cls-1" cx="668.55" cy="9.66" r="1.51"/>
        <circle class="cls-1" cx="622.52" cy="9.66" r="1.51"/>
      </g>
      <g>
        <circle class="cls-1" cx="675.38" cy="9.66" r="1.51"/>
        <circle class="cls-1" cx="681.96" cy="9.66" r="1.51"/>
        <circle class="cls-1" cx="688.53" cy="9.66" r="1.51"/>
        <circle class="cls-1" cx="701.68" cy="9.66" r="1.51"/>
        <circle class="cls-1" cx="708.26" cy="9.66" r="1.51"/>
        <circle class="cls-1" cx="714.84" cy="9.66" r="1.51"/>
        <circle class="cls-1" cx="721.41" cy="9.66" r="1.51"/>
        <circle class="cls-1" cx="727.99" cy="9.66" r="1.51"/>
        <circle class="cls-1" cx="734.56" cy="9.66" r="1.51"/>
        <circle class="cls-1" cx="741.14" cy="9.66" r="1.51"/>
        <circle class="cls-1" cx="695.11" cy="9.66" r="1.51"/>
      </g>
      <path class="cls-1" d="M107.2,19.37c-.11,0-.23-.03-.33-.08-.26-.13-.42-.39-.42-.68V.75c0-.29.16-.55.42-.68.26-.13.56-.1.79.07l11.76,8.91c.19.14.3.36.3.6,0,.24-.11.46-.3.6l-11.76,8.94c-.13.1-.29.15-.46.15ZM107.96,2.27v14.82l9.76-7.42-9.76-7.4Z"/>
      <g>
        <path class="cls-2" d="M424.64,19.11c-.42,0-.75-.34-.75-.75V1.01c0-.42.34-.75.75-.75s.75.34.75.75v17.34c0,.42-.34.75-.75.75Z"/>
        <path class="cls-2" d="M433.31,10.44h-17.34c-.42,0-.75-.34-.75-.75s.34-.75.75-.75h17.34c.42,0,.75.34.75.75s-.34.75-.75.75Z"/>
      </g>
      <g>
        <path class="cls-2" d="M287.26,19.11c-.42,0-.75-.34-.75-.75V1.01c0-.42.34-.75.75-.75s.75.34.75.75v17.34c0,.42-.34.75-.75.75Z"/>
        <path class="cls-2" d="M295.93,10.44h-17.34c-.42,0-.75-.34-.75-.75s.34-.75.75-.75h17.34c.42,0,.75.34.75.75s-.34.75-.75.75Z"/>
      </g>
      <g>
        <path class="cls-2" d="M254.85,19.11c-.42,0-.75-.34-.75-.75V1.01c0-.42.34-.75.75-.75s.75.34.75.75v17.34c0,.42-.34.75-.75.75Z"/>
        <path class="cls-2" d="M263.52,10.44h-17.34c-.42,0-.75-.34-.75-.75s.34-.75.75-.75h17.34c.42,0,.75.34.75.75s-.34.75-.75.75Z"/>
      </g>
      <g>
        <path class="cls-2" d="M9.43,19.11c-.42,0-.75-.34-.75-.75V1.01c0-.42.34-.75.75-.75s.75.34.75.75v17.34c0,.42-.34.75-.75.75Z"/>
        <path class="cls-2" d="M18.1,10.44H.75c-.42,0-.75-.34-.75-.75s.34-.75.75-.75h17.34c.42,0,.75.34.75.75s-.34.75-.75.75Z"/>
      </g>
    </g>
  </g>
</svg>