<?xml version="1.0" encoding="UTF-8"?>
<svg id="Camada_2" data-name="Camada 2" xmlns="http://www.w3.org/2000/svg" viewBox="0 0 477.57 105.96">
  <defs>
    <style>
      .cls-1 {
        fill: #00ae9d;
      }

      .cls-2 {
        fill: #003c44;
      }

      .cls-3 {
        fill: #bfd730;
      }

      .cls-4 {
        fill: #75c044;
      }
    </style>
  </defs>
  <g id="Camada_1-2" data-name="Camada 1">
    <g id="g10">
      <g id="g108">
        <g id="g110">
          <g id="g120">
            <path id="path122" class="cls-2" d="M305.84,16.98h-.42c-21.51.21-34.81,16.53-34.81,37.01s12.1,36.17,34.07,36.17h.73c21.4-.28,34.81-14.74,34.81-37.34,0-18.91-11.56-35.84-34.38-35.84M305.63,75.14l-.21-.02h0c-9.14,0-14.82-8.84-14.72-21.54,0-12.31,5.57-21.57,14.72-21.57h0c9.26,0,14.72,9.26,14.72,21.46,0,12.83-5.36,21.67-14.51,21.67M381.55,16.98h-.41c-21.52.21-34.81,16.53-34.81,37.01s12.11,36.17,34.08,36.17h.73c21.39-.28,34.8-14.74,34.8-37.34,0-18.91-11.56-35.84-34.39-35.84M381.34,75.14l-.21-.02c-9.15,0-14.83-8.82-14.72-21.54,0-12.31,5.57-21.57,14.72-21.57s14.72,9.26,14.72,21.46c0,12.83-5.35,21.67-14.52,21.67M463.69,50.72v-.2c8.32-3.16,11.57-8.95,11.57-14.83,0-6.93-3.99-11.98-9.56-14.61-4.66-2.32-9.74-3.2-17.35-3.42-1.36-.05-2.78-.05-4.32-.05-8.71,0-18.07.73-22.39,1.56v69.41c3.79.74,10.09,1.27,18.73,1.27,2.88,0,5.54-.08,7.99-.26,10.39-.7,16.98-2.83,21.24-6.06,4.74-3.57,7.98-8.84,7.98-15.57,0-8.41-5.24-14.83-13.87-17.25M440.45,31.7c1.27-.22,3.06-.44,6.21-.44.58,0,1.15.05,1.69.09,5.29.41,7.88,2.92,7.88,6.64s-2.58,6.25-7.88,7.08c-1.23.18-2.59.28-4.1.28h-3.79v-13.66ZM448.35,75.84c-.8.09-1.6.13-2.41.13-2.43,0-4.1,0-5.48-.22v-16.91h4.53c1.17,0,2.29.05,3.37.18,5.42.68,9.26,3.11,9.26,8.11,0,5.48-4.06,8.12-9.26,8.71M183.76,18.16v70.83h19.03V29.73c0-8.89-4.83-11.56-19.03-11.56M156.1,46.11c-8.95-3.35-12.73-4.74-12.73-8.31,0-3.13,3.16-5.24,8.95-5.24,7.04,0,14.05,2.61,15.34,3.36,2.68-7.27,4.22-18.83-15.14-18.83-17.87,0-28.49,9.67-28.49,22.2,0,10.5,7.99,17.02,19.98,21.32,7.99,2.74,11.15,4.65,11.15,8.11s-3.16,5.77-9.68,5.77c-7.14,0-14.09-2.2-18.39-4.41l-3.58,15.66c4,2.11,12.3,4.32,20.82,4.32,20.72,0,30.18-10.42,30.18-22.62,0-9.87-5.67-16.61-18.4-21.35M252.53,74.28c-13.05,0-20.71-8.01-20.71-20.82,0-14.42,9.46-20.82,20.29-20.82,5.68,0,11.54,1.67,13.15,2.52,3.34-7.66,2.53-18.07-13.99-18.07-21.14,0-39.44,12.7-39.44,37.62,0,18.84,11.66,35.34,38.18,35.34,8.42,0,15.15-1.58,17.77-2.93l-2.62-14.83c-2.95,1.16-8.1,2-12.63,2"/>
          </g>
          <g id="g124">
            <path id="path126" class="cls-4" d="M47.32,40.16l12.85-22.19L49.78,0H6.01c-.93.09-1.87.35-2.74.85C1.17,2.06,0,4.26,0,6.52,0,7.51.22,8.49.69,9.43l32.12,55.81,10.41-18.01h0l4.09-7.07"/>
          </g>
          <g id="g128">
            <path id="path130" class="cls-1" d="M49.78,0l27.32,47.23h20.75l21.83-37.93c.4-.83.64-1.78.64-2.79C120.32,3.05,117.59.22,114.16,0H49.78Z"/>
          </g>
          <g id="g132">
            <path id="path134" class="cls-3" d="M96.3,47.23h-53.08l-10.42,18.01,21.98,37.87c.54.79,1.23,1.47,2.1,1.98,1.02.59,2.14.88,3.26.88,2.13,0,4.22-1.07,5.47-2.96l32.24-55.76h-1.55Z"/>
          </g>
        </g>
      </g>
    </g>
  </g>
</svg>